<svg width="836" height="108" xmlns="http://www.w3.org/2000/svg">

 <g>
  <title>background</title>
  <rect fill="none" id="canvas_background" height="402" width="582" y="-1" x="-1"/>
 </g>
 <g>
  <title>Layer 1</title>
  <path id="svg_1" stroke-miterlimit="10" stroke-width="0.5937" stroke="#ED574E" fill="white" d="m180.429,107.16c29.316,0 53.08,-23.7646 53.08,-53.0799c0,-29.3153 -23.764,-53.0801 -53.08,-53.0801c-29.315,0 -53.08,23.7648 -53.08,53.0801c0,29.3153 23.765,53.0799 53.08,53.0799z"/>
  <path id="svg_2" fill="#ED574E" d="m180.668,103.114c27.08,0 49.033,-21.9532 49.033,-49.0338c0,-27.0805 -21.953,-49.03357 -49.033,-49.03357c-27.081,0 -49.034,21.95307 -49.034,49.03357c0,27.0806 21.953,49.0338 49.034,49.0338z"/>
  <path id="svg_3" fill="white" d="m180.429,40.2263l25.993,45.321l4.078,-3.3399l-30.071,-52.1683l-29.951,51.9609l3.958,3.5473l25.993,-45.321z"/>
  <path id="svg_5" fill="#ffffff" d="m30.3428,73.3347c0,-2.1072 -0.7437,-3.7185 -2.2311,-4.8341c-1.4874,-1.1403 -4.1647,-2.3302 -8.0319,-3.5697c-3.8672,-1.2643 -6.9288,-2.5038 -9.1847,-3.7185c-6.14785,-3.3218 -9.22179,-7.7964 -9.22179,-13.4237c0,-2.9252 0.81807,-5.5281 2.4542,-7.8088c1.66092,-2.3054 4.02835,-4.1027 7.10229,-5.3918c3.0987,-1.289 6.5693,-1.9336 10.4117,-1.9336c3.8672,0 7.313,0.7066 10.3374,2.1196c3.0244,1.3882 5.367,3.359 7.0279,5.9123c1.6857,2.5534 2.5286,5.4538 2.5286,8.7013l-11.1554,0c0,-2.479 -0.7809,-4.4002 -2.3427,-5.7637c-1.5617,-1.3882 -3.7557,-2.0823 -6.5817,-2.0823c-2.7269,0 -4.8464,0.5826 -6.3586,1.7477c-1.5122,1.1403 -2.2683,2.6525 -2.2683,4.5365c0,1.7601 0.8801,3.2351 2.6402,4.425c1.7848,1.1899 4.4002,2.3055 7.8459,3.3466c6.3462,1.9089 10.9696,4.2763 13.87,7.1023c2.9004,2.8261 4.3506,6.3462 4.3506,10.5605c0,4.6853 -1.7725,8.3666 -5.3174,11.0439c-3.545,2.6525 -8.317,3.9787 -14.3162,3.9787c-4.1647,0 -7.9575,-0.756 -11.3785,-2.2682c-3.42101,-1.537 -6.03634,-3.6317 -7.846,-6.2843c-1.78487,-2.6525 -2.6773,-5.7264 -2.6773,-9.2218l11.1926,0c0,5.9744 3.5698,8.9616 10.7092,8.9616c2.6525,0 4.7225,-0.533 6.2099,-1.599c1.4874,-1.0907 2.2311,-2.6029 2.2311,-4.5365z"/>
  <path id="svg_6" fill="#ffffff" d="m83.1228,68.4635l0,19.0757l-11.1554,0l0,-54.141l21.1209,0c4.0656,0 7.6357,0.7437 10.7097,2.2311c3.098,1.4874 5.478,3.6069 7.139,6.3586c1.661,2.7269 2.491,5.838 2.491,9.3334c0,5.305 -1.822,9.4945 -5.466,12.5684c-3.619,3.0492 -8.639,4.5738 -15.0596,4.5738l-9.7796,0zm0,-9.0359l9.9655,0c2.95,0 5.1935,-0.6941 6.7305,-2.0824c1.5622,-1.3882 2.3422,-3.3714 2.3422,-5.9495c0,-2.6526 -0.78,-4.7969 -2.3422,-6.433c-1.5618,-1.6361 -3.7185,-2.479 -6.4702,-2.5286l-10.2258,0l0,16.9935z"/>
  <path id="svg_7" fill="#ffffff" d="m268.082,67.7198l-8.887,0l0,19.8194l-11.156,0l0,-54.141l20.117,0c6.396,0 11.329,1.4255 14.8,4.2763c3.47,2.8508 5.206,6.8792 5.206,12.085c0,3.6937 -0.806,6.7801 -2.417,9.259c-1.587,2.4542 -4.004,4.4126 -7.251,5.8752l11.713,22.125l0,0.5205l-11.974,0l-10.151,-19.8194zm-8.887,-9.0359l8.998,0c2.802,0 4.971,-0.7065 6.508,-2.1196c1.537,-1.4378 2.305,-3.4086 2.305,-5.9123c0,-2.5534 -0.731,-4.5614 -2.194,-6.024c-1.437,-1.4626 -3.656,-2.1939 -6.656,-2.1939l-8.961,0l0,16.2498z"/>
  <path id="svg_8" fill="#ffffff" d="m358.419,42.4341l-16.585,0l0,45.1051l-11.155,0l0,-45.1051l-16.362,0l0,-9.0359l44.102,0l0,9.0359z"/>
  <path id="svg_9" fill="#ffffff" d="m413.764,76.3838l-19.559,0l-3.718,11.1554l-11.862,0l20.154,-54.141l10.337,0l20.266,54.141l-11.862,0l-3.756,-11.1554zm-16.547,-9.0359l13.535,0l-6.804,-20.2657l-6.731,20.2657z"/>
  <path id="svg_10" fill="#ffffff" d="m541.933,80.6973c-2.008,2.4046 -4.847,4.2762 -8.516,5.6148c-3.668,1.3139 -7.734,1.9708 -12.196,1.9708c-4.685,0 -8.801,-1.0163 -12.345,-3.0491c-3.521,-2.0576 -6.247,-5.0323 -8.181,-8.9244c-1.909,-3.892 -2.888,-8.4657 -2.938,-13.7211l0,-3.6813c0,-5.4042 0.905,-10.0771 2.715,-14.0187c1.834,-3.9663 4.462,-6.9907 7.883,-9.0731c3.446,-2.1071 7.474,-3.1607 12.085,-3.1607c6.421,0 11.441,1.537 15.06,4.611c3.619,3.0491 5.763,7.4989 6.433,13.3493l-10.858,0c-0.496,-3.0987 -1.599,-5.367 -3.31,-6.8048c-1.685,-1.4378 -4.016,-2.1567 -6.99,-2.1567c-3.793,0 -6.681,1.4254 -8.664,4.2762c-1.984,2.8508 -2.988,7.0899 -3.012,12.7172l0,3.4582c0,5.6768 1.078,9.9655 3.235,12.8659c2.156,2.9004 5.317,4.3506 9.482,4.3506c4.189,0 7.177,-0.8924 8.961,-2.6773l0,-9.3334l-10.151,0l0,-8.2178l21.307,0l0,21.6044z"/>
  <path id="svg_11" fill="#ffffff" d="m593.895,67.7198l-8.887,0l0,19.8194l-11.156,0l0,-54.141l20.117,0c6.396,0 11.329,1.4255 14.8,4.2763c3.47,2.8508 5.206,6.8792 5.206,12.085c0,3.6937 -0.806,6.7801 -2.417,9.259c-1.587,2.4542 -4.004,4.4126 -7.251,5.8752l11.713,22.125l0,0.5205l-11.974,0l-10.151,-19.8194zm-8.887,-9.0359l8.998,0c2.802,0 4.971,-0.7065 6.508,-2.1196c1.537,-1.4378 2.305,-3.4086 2.305,-5.9123c0,-2.5534 -0.731,-4.5614 -2.194,-6.024c-1.438,-1.4626 -3.656,-2.1939 -6.656,-2.1939l-8.961,0l0,16.2498z"/>
  <path id="svg_12" fill="#ffffff" d="m689.809,61.6958c0,5.3299 -0.942,10.0027 -2.826,14.0187c-1.884,4.0159 -4.586,7.1147 -8.106,9.2962c-3.496,2.1815 -7.511,3.2722 -12.048,3.2722c-4.487,0 -8.491,-1.0783 -12.011,-3.235c-3.52,-2.1567 -6.247,-5.2307 -8.18,-9.2219c-1.934,-4.0159 -2.913,-8.6268 -2.938,-13.8327l0,-2.6773c0,-5.3298 0.954,-10.0151 2.863,-14.0558c1.934,-4.0656 4.648,-7.1767 8.144,-9.3334c3.52,-2.1815 7.536,-3.2723 12.048,-3.2723c4.511,0 8.515,1.0908 12.01,3.2723c3.52,2.1567 6.235,5.2678 8.144,9.3334c1.933,4.0407 2.9,8.7136 2.9,14.0186l0,2.417zm-11.304,-2.4542c0,-5.6768 -1.016,-9.9903 -3.049,-12.9403c-2.033,-2.9499 -4.933,-4.4249 -8.701,-4.4249c-3.744,0 -6.632,1.4626 -8.664,4.3878c-2.033,2.9004 -3.062,7.1642 -3.087,12.7915l0,2.6401c0,5.5282 1.017,9.8168 3.049,12.866c2.033,3.0491 4.958,4.5737 8.776,4.5737c3.743,0 6.619,-1.4626 8.627,-4.3878c2.008,-2.95 3.024,-7.2386 3.049,-12.8659l0,-2.6402z"/>
  <path id="svg_13" fill="#ffffff" d="m761.739,33.3982l0,35.6602c0,5.9248 -1.859,10.6101 -5.577,14.0559c-3.694,3.4457 -8.751,5.1686 -15.172,5.1686c-6.321,0 -11.341,-1.6733 -15.06,-5.0199c-3.718,-3.3466 -5.614,-7.9451 -5.689,-13.7955l0,-36.0693l11.156,0l0,35.7346c0,3.5449 0.842,6.1355 2.528,7.7716c1.711,1.6113 4.066,2.417 7.065,2.417c6.272,0 9.458,-3.297 9.557,-9.8911l0,-36.0321l11.192,0z"/>
  <path id="svg_14" fill="#ffffff" d="m804.889,68.4635l0,19.0757l-11.156,0l0,-54.141l21.121,0c4.066,0 7.635,0.7437 10.709,2.2311c3.099,1.4874 5.479,3.6069 7.14,6.3586c1.661,2.7269 2.491,5.838 2.491,9.3334c0,5.305 -1.822,9.4945 -5.466,12.5684c-3.619,3.0492 -8.639,4.5738 -15.06,4.5738l-9.779,0zm0,-9.0359l9.965,0c2.95,0 5.194,-0.6941 6.731,-2.0824c1.561,-1.3882 2.342,-3.3714 2.342,-5.9495c0,-2.6526 -0.781,-4.7969 -2.342,-6.433c-1.562,-1.6361 -3.719,-2.479 -6.471,-2.5286l-10.225,0l0,16.9935z"/>
 </g>
</svg>